<?xml version="1.0" encoding="UTF-8" standalone="no"?>
<!-- Created with Inkscape (http://www.inkscape.org/) -->

<svg
   xmlns:dc="http://purl.org/dc/elements/1.1/"
   xmlns:cc="http://creativecommons.org/ns#"
   xmlns:rdf="http://www.w3.org/1999/02/22-rdf-syntax-ns#"
   xmlns:svg="http://www.w3.org/2000/svg"
   xmlns="http://www.w3.org/2000/svg"
   xmlns:sodipodi="http://sodipodi.sourceforge.net/DTD/sodipodi-0.dtd"
   xmlns:inkscape="http://www.inkscape.org/namespaces/inkscape"
   width="500"
   height="500"
   id="svg2"
   version="1.1"
   inkscape:version="0.48.4 r9939"
   sodipodi:docname="verzeichnungen_kissen.svg">
  <defs
     id="defs4" />
  <sodipodi:namedview
     id="base"
     pagecolor="#ffffff"
     bordercolor="#666666"
     borderopacity="1.0"
     inkscape:pageopacity="0.0"
     inkscape:pageshadow="2"
     inkscape:zoom="1"
     inkscape:cx="121.5625"
     inkscape:cy="270.24417"
     inkscape:document-units="px"
     inkscape:current-layer="layer1"
     showgrid="false"
     inkscape:snap-bbox="true"
     inkscape:window-width="1855"
     inkscape:window-height="1056"
     inkscape:window-x="65"
     inkscape:window-y="24"
     inkscape:window-maximized="1"
     inkscape:object-nodes="true"
     inkscape:snap-smooth-nodes="true"
     inkscape:object-paths="true"
     inkscape:snap-intersection-paths="true"
     inkscape:snap-midpoints="true">
    <inkscape:grid
       type="xygrid"
       id="grid2987"
       empspacing="5"
       visible="true"
       enabled="true"
       snapvisiblegridlinesonly="true" />
  </sodipodi:namedview>
  <metadata
     id="metadata7">
    <rdf:RDF>
      <cc:Work
         rdf:about="">
        <dc:format>image/svg+xml</dc:format>
        <dc:type
           rdf:resource="http://purl.org/dc/dcmitype/StillImage" />
        <dc:title />
      </cc:Work>
    </rdf:RDF>
  </metadata>
  <g
     inkscape:label="Layer 1"
     inkscape:groupmode="layer"
     id="layer1"
     transform="translate(0,-552.36218)">
    <rect
       id="rect2985"
       width="500"
       height="500"
       x="0"
       y="552.36218"
       style="fill:#ffffff" />
    <path
       style="fill:none;stroke:#000000;stroke-width:0.99999994px;stroke-linecap:square;stroke-linejoin:miter;stroke-opacity:1"
       d="m 0,802.36218 c 0,0 166.66667,0 250,0 83.33333,0 250,0 250,0"
       id="path3053"
       inkscape:connector-curvature="0"
       sodipodi:nodetypes="cac" />
    <path
       style="fill:none;stroke:#000000;stroke-width:1px;stroke-linecap:square;stroke-linejoin:miter;stroke-opacity:1"
       d="m 250,552.36218 c 0,0 0,166.66667 0,250.00001 0,83.33334 0,250.00001 0,250.00001"
       id="path3055"
       inkscape:connector-curvature="0"
       sodipodi:nodetypes="cac" />
    <path
       style="fill:none;stroke:#000000;stroke-width:1px;stroke-linecap:square;stroke-linejoin:miter;stroke-opacity:1"
       d="m 299.5,552.86218 c 0,0 -9.49368,166.27307 -9.5,249.5 -0.006,83.56003 9.5,250.50002 9.5,250.50002"
       id="path3055-6"
       inkscape:connector-curvature="0"
       sodipodi:nodetypes="cac" />
    <path
       style="fill:none;stroke:#000000;stroke-width:1px;stroke-linecap:square;stroke-linejoin:miter;stroke-opacity:1"
       d="m 349.5,552.86218 c 0,0 -19.48706,166.07971 -19.5,249.5 -0.013,83.75262 19.5,250.50002 19.5,250.50002"
       id="path3055-0"
       inkscape:connector-curvature="0"
       sodipodi:nodetypes="cac" />
    <path
       style="fill:none;stroke:#000000;stroke-width:1px;stroke-linecap:square;stroke-linejoin:miter;stroke-opacity:1"
       d="m 399.5,552.86218 c 0,0 -29.48051,165.75402 -29.5,249.5 -0.0196,84.07702 29.5,250.50002 29.5,250.50002"
       id="path3055-66"
       inkscape:connector-curvature="0"
       sodipodi:nodetypes="cac" />
    <path
       style="fill:none;stroke:#000000;stroke-width:1px;stroke-linecap:square;stroke-linejoin:miter;stroke-opacity:1"
       d="m 449.5,552.86218 c 0,0 -49.46769,164.71236 -49.5,249.5 -0.0324,85.11463 49.5,250.50002 49.5,250.50002"
       id="path3055-8"
       inkscape:connector-curvature="0"
       sodipodi:nodetypes="cac" />
    <path
       style="fill:none;stroke:#000000;stroke-width:1px;stroke-linecap:square;stroke-linejoin:miter;stroke-opacity:1"
       d="m 200.5,552.86218 c 0,0 9.49368,166.27307 9.5,249.5 0.006,83.56003 -9.5,250.50002 -9.5,250.50002"
       id="path3055-67"
       inkscape:connector-curvature="0"
       sodipodi:nodetypes="cac" />
    <path
       style="fill:none;stroke:#000000;stroke-width:1px;stroke-linecap:square;stroke-linejoin:miter;stroke-opacity:1"
       d="m 150,552.36218 c 0,0 20,166.40043 20,250 0,83.59958 -20,250.00002 -20,250.00002"
       id="path3055-3"
       inkscape:connector-curvature="0"
       sodipodi:nodetypes="cac" />
    <path
       style="fill:none;stroke:#000000;stroke-width:1px;stroke-linecap:square;stroke-linejoin:miter;stroke-opacity:1"
       d="m 100,552.36218 c 0,0 30,166.06881 30,250 0,83.9312 -30,250.00002 -30,250.00002"
       id="path3055-35"
       inkscape:connector-curvature="0"
       sodipodi:nodetypes="cac" />
    <path
       style="fill:none;stroke:#000000;stroke-width:1px;stroke-linecap:square;stroke-linejoin:miter;stroke-opacity:1"
       d="m 50,552.36218 c 0,0 49.999999,165.01634 50,250 0,84.98367 -50,250.00002 -50,250.00002"
       id="path3055-83"
       inkscape:connector-curvature="0"
       sodipodi:nodetypes="cac" />
    <path
       style="fill:none;stroke:#000000;stroke-width:0.99999994px;stroke-linecap:square;stroke-linejoin:miter;stroke-opacity:1"
       d="m 0,752.36218 c 0,0 166.60003,10 250,10 83.39997,0 250,-10 250,-10"
       id="path3053-5"
       inkscape:connector-curvature="0"
       sodipodi:nodetypes="cac" />
    <path
       style="fill:none;stroke:#000000;stroke-width:0.99999994px;stroke-linecap:square;stroke-linejoin:miter;stroke-opacity:1"
       d="m 0,702.36218 c 0,0 166.40043,20 250,20 83.59957,0 250,-20 250,-20"
       id="path3053-2"
       inkscape:connector-curvature="0"
       sodipodi:nodetypes="cac" />
    <path
       style="fill:none;stroke:#000000;stroke-width:0.99999994px;stroke-linecap:square;stroke-linejoin:miter;stroke-opacity:1"
       d="m 0,652.36218 c 0,0 166.06881,30 250,30 83.93119,0 250,-30 250,-30"
       id="path3053-9"
       inkscape:connector-curvature="0"
       sodipodi:nodetypes="cac" />
    <path
       style="fill:none;stroke:#000000;stroke-width:0.99999994px;stroke-linecap:square;stroke-linejoin:miter;stroke-opacity:1"
       d="m 0,602.36218 c 0,0 165.01634,50 250,50 84.98366,0 250,-50 250,-50"
       id="path3053-0"
       inkscape:connector-curvature="0"
       sodipodi:nodetypes="cac" />
    <path
       style="fill:none;stroke:#000000;stroke-width:0.99999994px;stroke-linecap:square;stroke-linejoin:miter;stroke-opacity:1"
       d="m 0,852.36218 c 0,0 166.60003,-10 250,-10 83.39997,0 250,10 250,10"
       id="path3053-38"
       inkscape:connector-curvature="0"
       sodipodi:nodetypes="cac" />
    <path
       style="fill:none;stroke:#000000;stroke-width:0.99999994px;stroke-linecap:square;stroke-linejoin:miter;stroke-opacity:1"
       d="m 0,902.36218 c 0,0 166.40043,-20 250,-20 83.59957,0 250,20 250,20"
       id="path3053-02"
       inkscape:connector-curvature="0"
       sodipodi:nodetypes="cac" />
    <path
       style="fill:none;stroke:#000000;stroke-width:0.99999994px;stroke-linecap:square;stroke-linejoin:miter;stroke-opacity:1"
       d="m 0,952.36218 c 0,0 165.60674,-40 250,-40 84.39326,0 250,40 250,40"
       id="path3053-92"
       inkscape:connector-curvature="0"
       sodipodi:nodetypes="cac" />
    <path
       style="fill:none;stroke:#000000;stroke-width:0.99999994px;stroke-linecap:square;stroke-linejoin:miter;stroke-opacity:1"
       d="m 0,1002.3622 c 0,0 165.01634,-50.00002 250,-50.00002 84.98366,0 250,50.00002 250,50.00002"
       id="path3053-6"
       inkscape:connector-curvature="0"
       sodipodi:nodetypes="cac" />
    <g
       id="g3037"
       style="fill:none;fill-opacity:1">
      <path
         id="path3053-25"
         style="fill:#000000;stroke:#000000;stroke-width:0.99999994000000003px;stroke-linecap:square;stroke-linejoin:miter;stroke-opacity:1;fill-opacity:1"
         d="m 0,1052.3622 c 0,0 163.46163,-70.00002 250,-70.00002 86.53837,0 250,70.00002 250,70.00002 M 0,552.36218 c 0,0 163.46163,70 250,70 86.53837,0 250,-70 250,-70 m -500,0 c 0,0 69.999999,163.46163 70,250 10e-7,86.53837 -70,250.00002 -70,250.00002 M 499.5,552.86218 c 0,0 -69.45544,163.167 -69.5,249.5 -0.0447,86.65416 69.5,250.50002 69.5,250.50002" />
    </g>
  </g>
</svg>
