<?xml version="1.0" encoding="UTF-8" standalone="no"?>
<!-- Created with Inkscape (http://www.inkscape.org/) -->

<svg
   xmlns:dc="http://purl.org/dc/elements/1.1/"
   xmlns:cc="http://creativecommons.org/ns#"
   xmlns:rdf="http://www.w3.org/1999/02/22-rdf-syntax-ns#"
   xmlns:svg="http://www.w3.org/2000/svg"
   xmlns="http://www.w3.org/2000/svg"
   xmlns:sodipodi="http://sodipodi.sourceforge.net/DTD/sodipodi-0.dtd"
   xmlns:inkscape="http://www.inkscape.org/namespaces/inkscape"
   width="500"
   height="500"
   id="svg2"
   version="1.1"
   inkscape:version="0.48.4 r9939"
   sodipodi:docname="verzeichnungen_tonnen.svg">
  <defs
     id="defs4" />
  <sodipodi:namedview
     id="base"
     pagecolor="#ffffff"
     bordercolor="#666666"
     borderopacity="1.0"
     inkscape:pageopacity="0.0"
     inkscape:pageshadow="2"
     inkscape:zoom="1.4142136"
     inkscape:cx="108.26205"
     inkscape:cy="223.11527"
     inkscape:document-units="px"
     inkscape:current-layer="layer1"
     showgrid="false"
     inkscape:snap-bbox="true"
     inkscape:window-width="1855"
     inkscape:window-height="1056"
     inkscape:window-x="65"
     inkscape:window-y="24"
     inkscape:window-maximized="1"
     inkscape:snap-smooth-nodes="true"
     inkscape:object-nodes="true"
     inkscape:object-paths="true"
     inkscape:snap-midpoints="true"
     inkscape:snap-intersection-paths="true">
    <inkscape:grid
       type="xygrid"
       id="grid2987"
       empspacing="5"
       visible="true"
       enabled="true"
       snapvisiblegridlinesonly="true" />
  </sodipodi:namedview>
  <metadata
     id="metadata7">
    <rdf:RDF>
      <cc:Work
         rdf:about="">
        <dc:format>image/svg+xml</dc:format>
        <dc:type
           rdf:resource="http://purl.org/dc/dcmitype/StillImage" />
        <dc:title></dc:title>
      </cc:Work>
    </rdf:RDF>
  </metadata>
  <g
     inkscape:label="Layer 1"
     inkscape:groupmode="layer"
     id="layer1"
     transform="translate(0,-552.36218)">
    <rect
       id="rect2985"
       width="500"
       height="500"
       x="0"
       y="552.36218"
       style="fill:#000000" />
    <path
       style="fill:#ffffff;fill-opacity:1;stroke:#000000;stroke-width:1px;stroke-linecap:butt;stroke-linejoin:miter;stroke-opacity:1"
       d="m 50.071998,50.169613 c 0,0 -50.08138334,131.160977 -50.071998,199.830387 0.00938747,68.68498 50.137988,199.86201 50.137988,199.86201 0,0 131.177032,50.13634 199.862012,50.13801 68.6379,0.002 199.72744,-50.09391 199.72744,-50.09391 0,0 49.7718,-131.23644 49.77205,-199.90611 C 499.49974,181.3283 449.72744,50.087607 449.72744,50.087607 449.72744,50.087607 318.63739,-0.00512078 250,0 181.29112,0.00512612 50.071998,50.169613 50.071998,50.169613 z"
       id="path4518"
       inkscape:connector-curvature="0"
       transform="translate(0,552.36218)"
       sodipodi:nodetypes="cacacacac" />
    <path
       style="fill:none;stroke:#000000;stroke-width:0.99999994px;stroke-linecap:square;stroke-linejoin:miter;stroke-opacity:1"
       d="m 0,802.36218 c 0,0 166.66667,0 250,0 83.33333,0 250,0 250,0"
       id="path3053"
       inkscape:connector-curvature="0"
       sodipodi:nodetypes="cac" />
    <path
       style="fill:none;stroke:#000000;stroke-width:1px;stroke-linecap:square;stroke-linejoin:miter;stroke-opacity:1"
       d="m 250,552.36218 c 0,0 0,166.66667 0,250.00001 0,83.33334 0,250.00001 0,250.00001"
       id="path3055"
       inkscape:connector-curvature="0"
       sodipodi:nodetypes="cac" />
    <path
       style="fill:none;stroke:#000000;stroke-width:1px;stroke-linecap:square;stroke-linejoin:miter;stroke-opacity:1"
       d="m 290,552.36216 c 0,0 9.50634,166.94 9.5,250.50003 -0.006,83.22693 -9.5,249.50001 -9.5,249.50001"
       id="path3055-6"
       inkscape:connector-curvature="0"
       sodipodi:nodetypes="cac" />
    <path
       style="fill:none;stroke:#000000;stroke-width:1px;stroke-linecap:square;stroke-linejoin:miter;stroke-opacity:1"
       d="m 330,552.36216 c 0,0 19.51299,166.74741 19.5,250.50003 -0.0129,83.42028 -19.5,249.50001 -19.5,249.50001"
       id="path3055-0"
       inkscape:connector-curvature="0"
       sodipodi:nodetypes="cac" />
    <path
       style="fill:none;stroke:#000000;stroke-width:1px;stroke-linecap:square;stroke-linejoin:miter;stroke-opacity:1"
       d="m 370,552.36218 c 0,0 29.51957,166.42299 29.5,250.50001 -0.0195,83.74598 -29.5,249.50001 -29.5,249.50001"
       id="path3055-66"
       inkscape:connector-curvature="0"
       sodipodi:nodetypes="cac" />
    <path
       style="fill:none;stroke:#000000;stroke-width:1px;stroke-linecap:square;stroke-linejoin:miter;stroke-opacity:1"
       d="m 400,552.36216 c 0,0 49.53244,165.3854 49.5,250.50003 -0.0323,84.78763 -49.5,249.50001 -49.5,249.50001"
       id="path3055-8"
       inkscape:connector-curvature="0"
       sodipodi:nodetypes="cac" />
    <path
       style="fill:none;stroke:#000000;stroke-width:1px;stroke-linecap:square;stroke-linejoin:miter;stroke-opacity:1"
       d="m 210,552.36216 c 0,0 -9.50634,166.94 -9.5,250.50003 0.006,83.22693 9.5,249.50001 9.5,249.50001"
       id="path3055-67"
       inkscape:connector-curvature="0"
       sodipodi:nodetypes="cac" />
    <path
       style="fill:none;stroke:#000000;stroke-width:1px;stroke-linecap:square;stroke-linejoin:miter;stroke-opacity:1"
       d="m 170,552.36218 c 0,0 -20,166.40043 -20,250.00001 0,83.59958 20,250.00001 20,250.00001"
       id="path3055-3"
       inkscape:connector-curvature="0"
       sodipodi:nodetypes="cac" />
    <path
       style="fill:none;stroke:#000000;stroke-width:1px;stroke-linecap:square;stroke-linejoin:miter;stroke-opacity:1"
       d="m 130,552.36216 c 0,0 -30.000001,166.06883 -30,250.00003 0,83.93119 30,250.00001 30,250.00001"
       id="path3055-35"
       inkscape:connector-curvature="0"
       sodipodi:nodetypes="cac" />
    <path
       style="fill:none;stroke:#000000;stroke-width:1px;stroke-linecap:square;stroke-linejoin:miter;stroke-opacity:1"
       d="m 100,552.36216 c 0,0 -50.000001,165.01636 -50,250.00003 10e-7,84.98366 50,250.00001 50,250.00001"
       id="path3055-83"
       inkscape:connector-curvature="0"
       sodipodi:nodetypes="cac" />
    <path
       style="fill:none;stroke:#000000;stroke-width:0.99999994px;stroke-linecap:square;stroke-linejoin:miter;stroke-opacity:1"
       d="m 0,762.36218 c 0,0 166.60003,-10 250,-10 83.39997,0 250,10 250,10"
       id="path3053-5"
       inkscape:connector-curvature="0"
       sodipodi:nodetypes="cac" />
    <path
       style="fill:none;stroke:#000000;stroke-width:0.99999994px;stroke-linecap:square;stroke-linejoin:miter;stroke-opacity:1"
       d="m 0,722.36218 c 0,0 166.40043,-20 250,-20 83.59957,0 250,20 250,20"
       id="path3053-2"
       inkscape:connector-curvature="0"
       sodipodi:nodetypes="cac" />
    <path
       style="fill:none;stroke:#000000;stroke-width:0.99999994px;stroke-linecap:square;stroke-linejoin:miter;stroke-opacity:1"
       d="m 0,682.36218 c 0,0 166.06881,-30 250,-30 83.93119,0 250,30 250,30"
       id="path3053-9"
       inkscape:connector-curvature="0"
       sodipodi:nodetypes="cac" />
    <path
       style="fill:none;stroke:#000000;stroke-width:0.99999994px;stroke-linecap:square;stroke-linejoin:miter;stroke-opacity:1"
       d="m 0,652.36218 c 0,0 165.01634,-50 250,-50 84.98366,0 250,50 250,50"
       id="path3053-0"
       inkscape:connector-curvature="0"
       sodipodi:nodetypes="cac" />
    <path
       style="fill:none;stroke:#000000;stroke-width:0.99999994px;stroke-linecap:square;stroke-linejoin:miter;stroke-opacity:1"
       d="m 0,842.36218 c 0,0 166.60003,10 250,10 83.39997,0 250,-10 250,-10"
       id="path3053-38"
       inkscape:connector-curvature="0"
       sodipodi:nodetypes="cac" />
    <path
       style="fill:none;stroke:#000000;stroke-width:0.99999994px;stroke-linecap:square;stroke-linejoin:miter;stroke-opacity:1"
       d="m 0,882.36218 c 0,0 166.40043,20 250,20 83.59957,0 250,-20 250,-20"
       id="path3053-02"
       inkscape:connector-curvature="0"
       sodipodi:nodetypes="cac" />
    <path
       style="fill:none;stroke:#000000;stroke-width:0.99999994px;stroke-linecap:square;stroke-linejoin:miter;stroke-opacity:1"
       d="m 0,922.36218 c 0,0 166.06881,30 250,30 83.93119,0 250,-30 250,-30"
       id="path3053-92"
       inkscape:connector-curvature="0"
       sodipodi:nodetypes="cac" />
    <path
       style="fill:none;stroke:#000000;stroke-width:0.99999994px;stroke-linecap:square;stroke-linejoin:miter;stroke-opacity:1"
       d="m 0,952.36218 c 0,0 165.01634,50.00002 250,50.00002 84.98366,0 250,-50.00002 250,-50.00002"
       id="path3053-6"
       inkscape:connector-curvature="0"
       sodipodi:nodetypes="cac" />
    <path
       style="fill:none;stroke:#000000;stroke-width:1px;stroke-linecap:square;stroke-linejoin:miter;stroke-opacity:1"
       d="m 430,552.36218 c 0,0 69.54472,163.84585 69.5,250.50001 -0.0446,86.333 -69.5,249.50001 -69.5,249.50001"
       id="path3055-1"
       inkscape:connector-curvature="0"
       sodipodi:nodetypes="cac" />
    <path
       style="fill:none;stroke:#000000;stroke-width:1px;stroke-linecap:square;stroke-linejoin:miter;stroke-opacity:1"
       d="m 70,552.36216 c 0,0 -70.0000017975329,163.46165 -70,250.00003 1.7975326e-6,86.53836 70,250.00001 70,250.00001"
       id="path3055-2"
       inkscape:connector-curvature="0"
       sodipodi:nodetypes="cac" />
    <path
       style="fill:none;stroke:#000000;stroke-width:0.99999994px;stroke-linecap:square;stroke-linejoin:miter;stroke-opacity:1"
       d="m 0,622.36218 c 0,0 163.46163,-70 250,-70 86.53837,0 250,70 250,70"
       id="path3053-3"
       inkscape:connector-curvature="0"
       sodipodi:nodetypes="cac" />
    <path
       style="fill:none;stroke:#000000;stroke-width:0.99999994px;stroke-linecap:square;stroke-linejoin:miter;stroke-opacity:1"
       d="m 0,982.36218 c 0,0 163.46163,70.00002 250,70.00002 86.53837,0 250,-70.00002 250,-70.00002"
       id="path3053-25"
       inkscape:connector-curvature="0"
       sodipodi:nodetypes="cac" />
  </g>
</svg>
